<?xml version="1.0" encoding="UTF-8"?>
<svg xmlns="http://www.w3.org/2000/svg" xmlns:xlink="http://www.w3.org/1999/xlink" width="375pt" height="374.999991pt" viewBox="0 0 375 374.999991" version="1.2">
<defs>
<clipPath id="clip1">
  <path d="M 79 60.75 L 328 60.75 L 328 309 L 79 309 Z M 79 60.75 "/>
</clipPath>
<clipPath id="clip2">
  <path d="M 28.039062 97 L 328 97 L 328 314.25 L 28.039062 314.25 Z M 28.039062 97 "/>
</clipPath>
</defs>
<g id="surface1">
<g clip-path="url(#clip1)" clip-rule="nonzero">
<path style=" stroke:none;fill-rule:nonzero;fill:rgb(92.939758%,10.978699%,14.118958%);fill-opacity:1;" d="M 327.984375 184.742188 C 327.984375 186.773438 327.9375 188.804688 327.835938 190.835938 C 327.738281 192.867188 327.585938 194.890625 327.390625 196.914062 C 327.191406 198.9375 326.941406 200.953125 326.644531 202.964844 C 326.347656 204.972656 326 206.976562 325.601562 208.96875 C 325.207031 210.960938 324.761719 212.945312 324.269531 214.917969 C 323.777344 216.886719 323.234375 218.847656 322.648438 220.792969 C 322.058594 222.734375 321.421875 224.664062 320.738281 226.578125 C 320.054688 228.492188 319.324219 230.386719 318.546875 232.265625 C 317.769531 234.144531 316.949219 236 316.082031 237.839844 C 315.210938 239.675781 314.300781 241.488281 313.34375 243.28125 C 312.386719 245.074219 311.386719 246.84375 310.34375 248.585938 C 309.300781 250.328125 308.214844 252.046875 307.089844 253.734375 C 305.960938 255.425781 304.792969 257.085938 303.582031 258.71875 C 302.375 260.351562 301.125 261.953125 299.839844 263.523438 C 298.550781 265.09375 297.226562 266.632812 295.863281 268.140625 C 294.5 269.644531 293.101562 271.117188 291.667969 272.554688 C 290.230469 273.992188 288.761719 275.390625 287.257812 276.757812 C 285.753906 278.121094 284.21875 279.449219 282.652344 280.738281 C 281.082031 282.027344 279.480469 283.277344 277.851562 284.488281 C 276.222656 285.699219 274.5625 286.867188 272.875 287.996094 C 271.1875 289.125 269.476562 290.214844 267.734375 291.257812 C 265.992188 292.304688 264.226562 293.304688 262.4375 294.261719 C 260.648438 295.222656 258.835938 296.132812 257.003906 297.003906 C 255.167969 297.871094 253.3125 298.695312 251.4375 299.472656 C 249.5625 300.25 247.671875 300.984375 245.757812 301.667969 C 243.847656 302.351562 241.921875 302.988281 239.980469 303.578125 C 238.039062 304.167969 236.082031 304.710938 234.113281 305.203125 C 232.144531 305.699219 230.167969 306.144531 228.175781 306.539062 C 226.1875 306.9375 224.1875 307.285156 222.179688 307.582031 C 220.171875 307.878906 218.160156 308.128906 216.140625 308.328125 C 214.121094 308.527344 212.097656 308.675781 210.070312 308.777344 C 208.042969 308.875 206.015625 308.925781 203.984375 308.925781 C 201.957031 308.925781 199.925781 308.875 197.902344 308.777344 C 195.875 308.675781 193.851562 308.527344 191.832031 308.328125 C 189.8125 308.128906 187.796875 307.878906 185.789062 307.582031 C 183.78125 307.285156 181.785156 306.9375 179.792969 306.539062 C 177.804688 306.144531 175.824219 305.699219 173.855469 305.203125 C 171.886719 304.710938 169.929688 304.167969 167.988281 303.578125 C 166.046875 302.988281 164.121094 302.351562 162.210938 301.667969 C 160.300781 300.984375 158.40625 300.25 156.53125 299.472656 C 154.65625 298.695312 152.800781 297.871094 150.96875 297.003906 C 149.132812 296.132812 147.320312 295.222656 145.53125 294.261719 C 143.742188 293.304688 141.976562 292.304688 140.234375 291.257812 C 138.496094 290.214844 136.78125 289.125 135.09375 287.996094 C 133.40625 286.867188 131.746094 285.699219 130.117188 284.488281 C 128.488281 283.277344 126.886719 282.027344 125.320312 280.738281 C 123.75 279.449219 122.214844 278.121094 120.710938 276.757812 C 119.207031 275.390625 117.738281 273.992188 116.304688 272.554688 C 114.867188 271.117188 113.46875 269.644531 112.105469 268.140625 C 110.742188 266.632812 109.417969 265.09375 108.132812 263.523438 C 106.84375 261.953125 105.59375 260.351562 104.386719 258.71875 C 103.175781 257.085938 102.007812 255.425781 100.882812 253.734375 C 99.753906 252.046875 98.667969 250.328125 97.625 248.585938 C 96.582031 246.84375 95.582031 245.074219 94.625 243.28125 C 93.667969 241.488281 92.757812 239.675781 91.890625 237.839844 C 91.023438 236 90.199219 234.144531 89.421875 232.265625 C 88.648438 230.386719 87.917969 228.492188 87.234375 226.578125 C 86.550781 224.664062 85.914062 222.734375 85.324219 220.792969 C 84.734375 218.847656 84.191406 216.886719 83.699219 214.917969 C 83.207031 212.945312 82.761719 210.960938 82.367188 208.96875 C 81.972656 206.976562 81.625 204.972656 81.328125 202.964844 C 81.027344 200.953125 80.78125 198.9375 80.582031 196.914062 C 80.382812 194.890625 80.234375 192.867188 80.132812 190.835938 C 80.035156 188.804688 79.984375 186.773438 79.984375 184.742188 C 79.984375 182.710938 80.035156 180.679688 80.132812 178.648438 C 80.234375 176.617188 80.382812 174.59375 80.582031 172.570312 C 80.78125 170.546875 81.027344 168.53125 81.328125 166.519531 C 81.625 164.511719 81.972656 162.507812 82.367188 160.515625 C 82.761719 158.523438 83.207031 156.539062 83.699219 154.566406 C 84.195312 152.597656 84.734375 150.636719 85.324219 148.695312 C 85.914062 146.75 86.550781 144.820312 87.234375 142.90625 C 87.917969 140.992188 88.648438 139.097656 89.421875 137.21875 C 90.199219 135.339844 91.023438 133.484375 91.890625 131.648438 C 92.757812 129.808594 93.667969 127.996094 94.625 126.203125 C 95.582031 124.410156 96.582031 122.640625 97.625 120.898438 C 98.667969 119.15625 99.753906 117.4375 100.882812 115.75 C 102.007812 114.058594 103.175781 112.398438 104.386719 110.765625 C 105.59375 109.132812 106.84375 107.53125 108.132812 105.960938 C 109.417969 104.390625 110.742188 102.851562 112.105469 101.34375 C 113.46875 99.839844 114.867188 98.367188 116.304688 96.929688 C 117.738281 95.492188 119.207031 94.09375 120.710938 92.726562 C 122.214844 91.363281 123.75 90.035156 125.320312 88.746094 C 126.886719 87.457031 128.488281 86.207031 130.117188 84.996094 C 131.746094 83.785156 133.40625 82.617188 135.09375 81.488281 C 136.78125 80.359375 138.496094 79.269531 140.234375 78.226562 C 141.976562 77.179688 143.742188 76.179688 145.53125 75.222656 C 147.320312 74.265625 149.132812 73.351562 150.96875 72.480469 C 152.800781 71.613281 154.65625 70.789062 156.53125 70.011719 C 158.40625 69.234375 160.300781 68.503906 162.210938 67.816406 C 164.121094 67.132812 166.046875 66.496094 167.988281 65.90625 C 169.929688 65.316406 171.886719 64.773438 173.855469 64.28125 C 175.824219 63.785156 177.804688 63.339844 179.792969 62.945312 C 181.785156 62.546875 183.78125 62.199219 185.789062 61.902344 C 187.796875 61.605469 189.8125 61.355469 191.832031 61.15625 C 193.851562 60.957031 195.875 60.808594 197.902344 60.707031 C 199.925781 60.609375 201.957031 60.558594 203.984375 60.558594 C 206.015625 60.558594 208.042969 60.609375 210.070312 60.707031 C 212.097656 60.808594 214.121094 60.957031 216.140625 61.15625 C 218.160156 61.355469 220.171875 61.605469 222.179688 61.902344 C 224.1875 62.199219 226.1875 62.546875 228.175781 62.945312 C 230.167969 63.339844 232.144531 63.785156 234.113281 64.28125 C 236.082031 64.773438 238.039062 65.316406 239.980469 65.90625 C 241.921875 66.496094 243.847656 67.132812 245.757812 67.816406 C 247.671875 68.503906 249.5625 69.234375 251.4375 70.011719 C 253.3125 70.789062 255.167969 71.613281 257.003906 72.480469 C 258.835938 73.351562 260.648438 74.265625 262.4375 75.222656 C 264.226562 76.179688 265.992188 77.179688 267.734375 78.226562 C 269.476562 79.269531 271.1875 80.359375 272.875 81.488281 C 274.5625 82.617188 276.222656 83.785156 277.851562 84.996094 C 279.480469 86.207031 281.082031 87.457031 282.652344 88.746094 C 284.21875 90.035156 285.753906 91.363281 287.257812 92.726562 C 288.761719 94.09375 290.230469 95.492188 291.667969 96.929688 C 293.101562 98.367188 294.5 99.839844 295.863281 101.34375 C 297.226562 102.851562 298.550781 104.390625 299.839844 105.960938 C 301.125 107.53125 302.375 109.132812 303.582031 110.765625 C 304.792969 112.398438 305.960938 114.058594 307.089844 115.75 C 308.214844 117.4375 309.300781 119.15625 310.34375 120.898438 C 311.386719 122.640625 312.386719 124.410156 313.34375 126.203125 C 314.300781 127.996094 315.214844 129.808594 316.082031 131.648438 C 316.949219 133.484375 317.769531 135.339844 318.546875 137.21875 C 319.324219 139.097656 320.054688 140.992188 320.738281 142.90625 C 321.421875 144.820312 322.058594 146.75 322.648438 148.695312 C 323.234375 150.636719 323.777344 152.597656 324.269531 154.566406 C 324.761719 156.539062 325.207031 158.523438 325.601562 160.515625 C 326 162.507812 326.347656 164.511719 326.644531 166.519531 C 326.941406 168.53125 327.191406 170.546875 327.390625 172.570312 C 327.585938 174.59375 327.738281 176.617188 327.835938 178.648438 C 327.9375 180.679688 327.984375 182.710938 327.984375 184.742188 Z M 327.984375 184.742188 "/>
</g>
<g clip-path="url(#clip2)" clip-rule="nonzero">
<path style=" stroke:none;fill-rule:nonzero;fill:rgb(0%,0%,0%);fill-opacity:1;" d="M 327.984375 184.742188 L 141.984375 184.742188 L 139.441406 183.589844 L 51.34375 97.667969 L 45.351562 103.851562 L 116.433594 173.160156 L 31.667969 134.898438 L 28.09375 142.78125 L 120.976562 184.742188 L 80.042969 184.742188 C 80.042969 231.734375 106.078125 272.605469 144.46875 293.707031 L 143.015625 293.707031 L 143.015625 314.867188 L 258.476562 314.867188 L 258.476562 296.3125 C 299.648438 276.0625 327.984375 233.738281 327.984375 184.742188 Z M 327.984375 184.742188 "/>
</g>
</g>
</svg>
